<svg width="8" height="8" viewBox="0 0 8 8" fill="none" xmlns="http://www.w3.org/2000/svg">
<path d="M4.39587 3.81128C5.70522 3.86231 6.60635 5.64772 6.70837 6.03882C6.81034 6.4299 6.8104 7.0077 6.16443 7.04175C5.51826 7.07576 5.3482 6.775 4.80408 6.68433C4.73048 6.67206 4.59981 6.66772 4.5658 6.66772C4.46378 6.66773 4.33263 6.67672 4.29333 6.68433C4.11734 6.71842 3.66404 6.82386 3.25623 6.97339C2.74611 7.16035 1.96464 7.0248 2.11755 6.12378C2.2706 5.22254 3.08651 3.76027 4.39587 3.81128ZM1.17322 2.4021C1.60962 2.18457 2.20537 2.49432 2.50427 3.09351C2.80312 3.69274 2.69164 4.35434 2.25525 4.57202C1.81885 4.78957 1.22311 4.48075 0.924194 3.88159C0.625254 3.28232 0.736795 2.6198 1.17322 2.4021ZM6.09412 3.02515C6.36734 2.40733 6.95367 2.06762 7.40369 2.26636C7.85375 2.46534 7.9972 3.12784 7.724 3.74585C7.45076 4.36387 6.86451 4.7036 6.41443 4.50464C5.96434 4.30565 5.82087 3.64318 6.09412 3.02515ZM4.48474 1.27515C4.67401 0.572063 5.24223 0.113138 5.75427 0.250732C6.2664 0.388591 6.52854 1.07095 6.33923 1.77417C6.14992 2.47737 5.58084 2.93546 5.06873 2.79761C4.55682 2.65961 4.29558 1.97818 4.48474 1.27515ZM2.84216 0.235107C3.35521 0.100705 3.9203 0.562851 4.10486 1.26733C4.28928 1.97172 4.02311 2.6515 3.51013 2.78589C2.99716 2.92005 2.43197 2.45801 2.24744 1.75366C2.06288 1.04919 2.32913 0.369521 2.84216 0.235107Z" fill="url(#paint0_linear_1_677)"/>
<defs>
<linearGradient id="paint0_linear_1_677" x1="3.11358" y1="-0.0797428" x2="4.46129" y2="7.6286" gradientUnits="userSpaceOnUse">
<stop stop-color="#DD2A7B"/>
<stop offset="0.41261" stop-color="#9747FF"/>
<stop offset="1" stop-color="#334CCA"/>
</linearGradient>
</defs>
</svg>
